<svg width="126" height="27" viewBox="0 0 126 27" fill="none" xmlns="http://www.w3.org/2000/svg">
<g id="California-State-University-1.svg" clip-path="url(#clip0_1_4377)">
<g id="Layer 2">
<g id="Layer 1">
<g id="Layer 2_2">
<g id="Layer 1-2">
<path id="Vector" d="M40.2693 0.25H0.760986V25.6482H40.2693V0.25Z" fill="#76888F"/>
<path id="Vector_2" d="M17.5427 10.842H20.1765V8.36802C20.1765 7.67192 19.725 5.80938 16.6772 5.8282C16.2293 5.79087 15.7783 5.84237 15.3503 5.97973C14.9223 6.11709 14.5256 6.33761 14.183 6.62865C13.8404 6.91968 13.5586 7.27549 13.3539 7.67567C13.1491 8.07586 13.0254 8.51253 12.9898 8.96065C12.9851 9.04838 12.9851 9.1363 12.9898 9.22403V16.9564C12.9898 18.2733 13.9305 20.0794 16.5926 20.0888C19.2547 20.0982 20.1107 18.5837 20.1389 17.4643V15.075H17.505V16.9564C17.505 17.4267 17.2605 18.0758 16.5644 18.0099C15.8683 17.9441 15.8118 17.4079 15.8118 16.5331V9.32751C15.8118 8.49971 16.0752 7.86005 16.696 7.87887C17.3169 7.89768 17.5521 8.36802 17.5427 9.32751C17.5332 10.287 17.5427 10.842 17.5427 10.842Z" fill="white"/>
<path id="Vector_3" d="M28.3228 10.6727V8.45273C28.3228 7.24867 27.8618 5.83766 25.1339 5.8941C22.4059 5.95054 21.7474 7.38036 21.644 8.71612C21.5466 9.51096 21.5912 10.3168 21.7757 11.096C22.0144 11.6641 22.3969 12.1601 22.8857 12.5353C23.6946 13.2784 24.9457 14.2755 25.4349 14.8587C25.7415 15.3675 25.8798 15.96 25.83 16.5519C25.8576 16.9746 25.7934 17.3982 25.6418 17.7936C25.5511 17.8916 25.4373 17.9654 25.3108 18.0081C25.1843 18.0508 25.0491 18.0612 24.9175 18.0382C24.4942 18.0382 24.1368 17.9347 24.1368 17.0035V15.1221H21.5029V17.6055C21.5424 18.2751 21.8192 18.9087 22.2836 19.3928C23.0006 19.9468 23.9036 20.2029 24.8046 20.1077C25.3148 20.1602 25.8304 20.1035 26.317 19.9413C26.8036 19.7791 27.25 19.5152 27.6267 19.167C28.1064 18.6496 28.4074 17.8783 28.4074 16.2603C28.4698 15.599 28.3676 14.9326 28.1099 14.3204C27.8522 13.7082 27.4471 13.1693 26.9306 12.7516C25.7547 11.6134 24.6071 10.8703 24.3437 10.2024C24.2045 9.64548 24.182 9.06577 24.2779 8.49977C24.2727 8.34414 24.3291 8.19275 24.4347 8.07833C24.5403 7.96391 24.6867 7.89566 24.8423 7.88833H24.9457C25.1136 7.85997 25.2859 7.89676 25.4275 7.99116C25.5691 8.08557 25.6693 8.23048 25.7077 8.39629C25.7922 9.15511 25.8205 9.91914 25.7923 10.6821L28.3228 10.6727Z" fill="white"/>
<path id="Vector_4" d="M37.2591 5.99758V19.929H34.7758V18.2264C34.7758 18.2264 34.5406 20.2488 31.9537 20.1077C29.3669 19.9666 29.7808 16.9753 29.7902 15.9781V6.0258H32.6122V16.8342C32.6081 17.0939 32.6627 17.3511 32.7721 17.5867C32.8518 17.6933 32.9579 17.7772 33.0801 17.83C33.2022 17.8828 33.336 17.9027 33.4682 17.8877C33.6151 17.894 33.7613 17.8658 33.8953 17.8053C34.0292 17.7449 34.1471 17.6539 34.2396 17.5397C34.4018 17.2532 34.4831 16.9281 34.4748 16.599V5.96936L37.2591 5.99758Z" fill="white"/>
<path id="Vector_5" d="M51.3881 2.48877V4.0691H49.1775V11.999H47.1833V4.0691H44.9727V2.48877H51.3881Z" fill="#76888F"/>
<path id="Vector_6" d="M55.1979 11.9896V7.4085C55.1979 6.81587 55.0944 6.35494 54.5018 6.35494C53.9091 6.35494 53.8057 6.81587 53.8057 7.4085V11.9896H51.9243V2.48877H53.8057V6.0163C53.9665 5.74937 54.1989 5.53292 54.4766 5.39157C54.7544 5.25022 55.0662 5.18965 55.3766 5.21673C55.7732 5.17731 56.1692 5.29679 56.4778 5.54897C56.7864 5.80114 56.9824 6.16541 57.0228 6.56189C57.0274 6.59623 57.0274 6.63103 57.0228 6.66537V11.999L55.1979 11.9896Z" fill="#76888F"/>
<path id="Vector_7" d="M59.7131 8.96069C59.7131 9.75086 59.7131 10.9361 60.5597 10.9361C61.2181 10.9361 61.3498 10.3059 61.3498 9.75086H63.2312C63.2345 10.0712 63.1729 10.3889 63.05 10.6848C62.9272 10.9807 62.7456 11.2486 62.5163 11.4723C61.9668 11.9299 61.2642 12.1619 60.5503 12.1214C58.1515 12.1214 57.8411 10.6633 57.8411 8.57501C57.8411 6.75951 58.1045 5.2074 60.5503 5.2074C62.996 5.2074 63.3723 6.82536 63.2594 8.9701L59.7131 8.96069ZM61.4157 7.91654C61.4157 7.26748 61.4157 6.34561 60.5597 6.34561C59.7037 6.34561 59.7131 7.34273 59.7131 7.91654H61.4157Z" fill="#76888F"/>
<path id="Vector_8" d="M66.8528 7.23918C66.8528 4.72758 66.8528 2.32886 70.1357 2.32886C72.1676 2.32886 72.9578 3.44826 72.9013 5.48953H70.9447C70.9447 4.22902 70.719 3.74928 70.1263 3.74928C69.0069 3.74928 68.8658 4.80283 68.8658 7.23918C68.8658 9.67553 69.0069 10.7291 70.1263 10.7291C71.067 10.7291 71.0106 9.54383 71.067 8.79129H73.033C73.033 11.3311 72.0171 12.1495 70.211 12.1495C66.8528 12.1495 66.8528 9.73197 66.8528 7.23918Z" fill="#76888F"/>
<path id="Vector_9" d="M78.884 10.7574C78.884 11.1619 78.9405 11.5852 78.9781 11.9991H77.2567L77.1814 11.1148C77.0175 11.4318 76.7669 11.6956 76.4588 11.8754C76.1507 12.0553 75.7977 12.1439 75.4412 12.1308C74.1525 12.1308 73.6727 11.1901 73.6727 10.0142C73.6445 7.77543 75.3471 7.70959 77.0685 7.77543V7.22984C77.0685 6.66544 76.9933 6.28917 76.316 6.28917C75.6387 6.28917 75.6199 6.77832 75.6199 7.3051H73.8044C73.7734 6.99941 73.8201 6.69084 73.9401 6.408C74.0602 6.12516 74.2497 5.87721 74.4911 5.68714C75.0087 5.35753 75.6196 5.20562 76.2313 5.25443C78.5924 5.25443 78.8935 6.27035 78.8935 7.48383L78.884 10.7574ZM75.46 9.92958C75.46 10.3999 75.5352 10.9831 76.1467 10.9831C77.2379 10.9831 77.0874 9.50628 77.0874 8.78196C76.1467 8.81958 75.46 8.71611 75.46 9.92958Z" fill="#76888F"/>
<path id="Vector_10" d="M81.913 2.48877V11.9896H80.0317V2.48877H81.913Z" fill="#76888F"/>
<path id="Vector_11" d="M85.0455 2.48877V3.94682H83.1641V2.48877H85.0455ZM85.0455 11.999H83.1641V5.33901H85.0455V11.999Z" fill="#76888F"/>
<path id="Vector_12" d="M89.4196 3.62704C88.6671 3.5706 88.4789 3.86221 88.4789 4.56772V5.36729H89.3443V6.4867H88.4789V11.9896H86.5976V6.4867H85.7698V5.33907H86.6164C86.6164 3.45772 86.4471 2.41357 88.7141 2.41357H89.3726L89.4196 3.62704Z" fill="#76888F"/>
<path id="Vector_13" d="M89.7394 8.58441C89.7394 6.76891 90.0028 5.2168 92.4486 5.2168C94.8943 5.2168 95.1577 6.76891 95.1577 8.58441C95.1577 10.6633 94.8379 12.1308 92.4486 12.1308C90.0593 12.1308 89.7394 10.6633 89.7394 8.58441ZM93.3046 8.48094C93.3046 7.09815 93.2388 6.40205 92.4486 6.40205C91.6584 6.40205 91.5926 7.09815 91.5926 8.48094C91.5926 10.5128 91.7619 10.9455 92.4486 10.9455C93.1353 10.9455 93.3046 10.5034 93.3046 8.48094Z" fill="#76888F"/>
<path id="Vector_14" d="M97.9139 5.33906V6.19508C98.0666 5.87808 98.3147 5.61688 98.6235 5.44816C98.9322 5.27944 99.2861 5.21168 99.6353 5.2544V6.83473C97.9986 6.73126 97.9797 7.68134 97.9797 8.33981V11.9614H96.0984V5.37669L97.9139 5.33906Z" fill="#76888F"/>
<path id="Vector_15" d="M102.119 6.01631C102.279 5.74938 102.512 5.53293 102.79 5.39158C103.067 5.25023 103.379 5.18965 103.69 5.21673C104.086 5.17732 104.482 5.2968 104.791 5.54897C105.099 5.80115 105.295 6.16542 105.336 6.5619C105.34 6.59623 105.34 6.63104 105.336 6.66537V11.999H103.454V7.40851C103.454 6.81588 103.351 6.35495 102.758 6.35495C102.166 6.35495 102.062 6.81588 102.062 7.40851V11.9896H100.181V5.33902H102.062L102.119 6.01631Z" fill="#76888F"/>
<path id="Vector_16" d="M108.468 2.48877V3.94682H106.587V2.48877H108.468ZM108.468 11.999H106.587V5.33901H108.468V11.999Z" fill="#76888F"/>
<path id="Vector_17" d="M114.761 10.7574C114.761 11.1619 114.818 11.5852 114.855 11.9991H113.134L113.059 11.1148C112.895 11.4318 112.644 11.6956 112.336 11.8754C112.028 12.0553 111.675 12.1439 111.319 12.1308C110.03 12.1308 109.55 11.1901 109.55 10.0142C109.55 7.81306 111.253 7.71899 112.974 7.74721V7.22984C112.974 6.66544 112.899 6.28917 112.222 6.28917C111.544 6.28917 111.525 6.77832 111.525 7.3051H109.71C109.679 6.99941 109.726 6.69084 109.846 6.408C109.966 6.12516 110.155 5.87721 110.397 5.68714C110.914 5.35753 111.525 5.20562 112.137 5.25443C114.498 5.25443 114.799 6.27035 114.799 7.48383L114.761 10.7574ZM111.337 9.92958C111.337 10.3999 111.413 10.9831 112.024 10.9831C113.115 10.9831 112.965 9.50628 112.965 8.78196C112.024 8.81958 111.337 8.71611 111.337 9.92958Z" fill="#76888F"/>
<path id="Vector_18" d="M48.3027 24.3783C45.8381 24.3783 45.3772 22.9296 45.4807 21.2834H47.4655C47.4655 22.2241 47.4655 22.9578 48.5943 22.9578C48.7179 22.9695 48.8427 22.9565 48.9612 22.9197C49.0798 22.8829 49.19 22.823 49.2853 22.7434C49.3806 22.6638 49.4592 22.5662 49.5166 22.456C49.574 22.3459 49.609 22.2255 49.6197 22.1018C49.6241 22.0298 49.6241 21.9575 49.6197 21.8855C49.6197 20.1734 45.6124 20.07 45.6124 17.2385C45.6124 15.7523 46.3273 14.567 48.7448 14.567C50.6826 14.567 51.6421 15.4324 51.5104 17.389H49.6291C49.6291 16.6741 49.5068 15.9498 48.6884 15.9498C48.4402 15.9262 48.1928 16.0022 48.0005 16.1609C47.8082 16.3196 47.6869 16.5482 47.6631 16.7964C47.6583 16.8528 47.6583 16.9094 47.6631 16.9657C47.6631 18.7718 51.6703 18.6119 51.6703 21.6033C51.6233 24.0866 49.8172 24.3783 48.3027 24.3783Z" fill="#76888F"/>
<path id="Vector_19" d="M51.9243 17.5679H52.6769V16.5143L54.5582 15.6865V17.5679H55.4989V18.7155H54.5582V22.2712C54.5582 22.7698 54.5582 23.099 55.1508 23.099C55.2604 23.1087 55.3705 23.1087 55.4801 23.099V24.2467C55.1681 24.2873 54.854 24.3093 54.5394 24.3125C52.9308 24.3125 52.7239 23.2495 52.7239 22.8357V18.7155H51.9713L51.9243 17.5679Z" fill="#76888F"/>
<path id="Vector_20" d="M61.2558 22.9861C61.2558 23.3906 61.3122 23.8139 61.3499 24.2278H59.619L59.5438 23.3436C59.3799 23.6605 59.1292 23.9243 58.8211 24.1042C58.513 24.2841 58.1601 24.3726 57.8035 24.3595C56.5148 24.3595 56.035 23.4188 56.035 22.243C56.035 20.0418 57.7377 19.9478 59.4591 19.976V19.4586C59.4591 18.8942 59.3838 18.5179 58.7066 18.5179C58.0293 18.5179 58.0105 19.0071 58.0105 19.5339H56.1291C56.0981 19.2282 56.1448 18.9196 56.2648 18.6368C56.3849 18.3539 56.5744 18.106 56.8158 17.9159C57.3334 17.5863 57.9443 17.4344 58.556 17.4832C60.9171 17.4832 61.2182 18.4991 61.2182 19.7126L61.2558 22.9861ZM57.8317 22.1583C57.8317 22.6287 57.907 23.2119 58.5184 23.2119C59.6096 23.2119 59.4591 21.735 59.4591 21.0107C58.509 21.0483 57.8317 20.9449 57.8317 22.1583Z" fill="#76888F"/>
<path id="Vector_21" d="M61.7637 17.5679H62.5163V16.5143L64.3976 15.6865V17.5679H65.3383V18.7155H64.3976V22.2712C64.3976 22.7698 64.3976 23.099 64.9902 23.099C65.0998 23.1087 65.2099 23.1087 65.3195 23.099V24.2467C65.0075 24.2873 64.6934 24.3093 64.3788 24.3125C62.7703 24.3125 62.5633 23.2495 62.5633 22.8357V18.7155H61.8108L61.7637 17.5679Z" fill="#76888F"/>
<path id="Vector_22" d="M67.6147 21.1895C67.6147 21.9796 67.6147 23.1649 68.4613 23.1649C69.1198 23.1649 69.2515 22.5346 69.2515 21.9796H71.1329C71.1362 22.3 71.0746 22.6177 70.9517 22.9136C70.8288 23.2094 70.6473 23.4773 70.418 23.7011C69.8685 24.1587 69.1658 24.3907 68.4519 24.3501C66.0532 24.3501 65.7428 22.8921 65.7428 20.8038C65.7428 18.9883 66.0062 17.4362 68.4519 17.4362C70.8977 17.4362 71.274 19.0541 71.1611 21.1989L67.6147 21.1895ZM69.3174 20.1453C69.3174 19.4962 69.3174 18.5744 68.4613 18.5744C67.6053 18.5744 67.6147 19.5715 67.6147 20.1453H69.3174Z" fill="#76888F"/>
<path id="Vector_23" d="M81.659 14.7175V21.4622C81.659 22.8826 80.8595 24.3877 78.4325 24.3877C76.2502 24.3877 75.1966 23.2589 75.1966 21.4622V14.7175H77.1814V21.3023C77.1814 22.4781 77.68 22.939 78.4043 22.939C79.1286 22.939 79.6648 22.3558 79.6648 21.3023V14.7175H81.659Z" fill="#76888F"/>
<path id="Vector_24" d="M84.7068 18.2451C84.8676 17.9781 85.1001 17.7617 85.3778 17.6203C85.6555 17.479 85.9673 17.4184 86.2778 17.4455C86.6743 17.4061 87.0704 17.5256 87.379 17.7777C87.6876 18.0299 87.8836 18.3942 87.9239 18.7907C87.9286 18.825 87.9286 18.8598 87.9239 18.8941V24.2278H86.0426V19.6373C86.0426 19.0446 85.9391 18.5837 85.3465 18.5837C84.7539 18.5837 84.6504 19.0446 84.6504 19.6373V24.2184H82.769V17.5678H84.6504L84.7068 18.2451Z" fill="#76888F"/>
<path id="Vector_25" d="M91.1222 14.7175V16.1756H89.2408V14.7175H91.1222ZM91.1222 24.2278H89.2408V17.5678H91.1222V24.2278Z" fill="#76888F"/>
<path id="Vector_26" d="M91.8089 17.5679H93.6902L94.6309 22.5629L95.5716 17.5679H97.3871L95.5058 24.2184H93.568L91.8089 17.5679Z" fill="#76888F"/>
<path id="Vector_27" d="M99.6636 21.1895C99.6636 21.9796 99.6636 23.1649 100.51 23.1649C101.169 23.1649 101.3 22.5346 101.3 21.9796H103.182C103.185 22.3 103.123 22.6177 103.001 22.9136C102.878 23.2094 102.696 23.4773 102.467 23.7011C101.917 24.1587 101.215 24.3907 100.501 24.3501C98.102 24.3501 97.7916 22.8921 97.7916 20.8038C97.7916 18.9883 98.055 17.4362 100.501 17.4362C102.947 17.4362 103.323 19.0541 103.21 21.1989L99.6636 21.1895ZM101.413 20.1547C101.413 19.5056 101.413 18.5838 100.557 18.5838C99.7012 18.5838 99.7106 19.5809 99.7106 20.1547H101.413Z" fill="#76888F"/>
<path id="Vector_28" d="M105.975 17.5678V18.4238C106.128 18.1068 106.376 17.8456 106.685 17.6769C106.994 17.5082 107.348 17.4404 107.697 17.4832V19.0635C106.06 18.96 106.041 19.9101 106.041 20.5686V24.1902H104.16V17.6054L105.975 17.5678Z" fill="#76888F"/>
<path id="Vector_29" d="M109.766 22.0925C109.74 22.3627 109.772 22.6355 109.86 22.8921C109.964 23.099 110.161 23.2119 110.528 23.2119C110.614 23.217 110.699 23.2052 110.78 23.1772C110.86 23.1492 110.935 23.1055 110.999 23.0487C111.062 22.9919 111.114 22.9231 111.151 22.8462C111.189 22.7693 111.21 22.6858 111.215 22.6005V22.5252C111.215 21.1142 107.951 21.434 107.951 19.3081C107.951 17.8689 109.371 17.4268 110.575 17.4268C111.779 17.4268 112.983 18.0288 112.88 19.468H111.065C111.065 19.0071 111.008 18.7343 110.876 18.612C110.812 18.5573 110.737 18.5165 110.656 18.4922C110.575 18.4679 110.49 18.4606 110.406 18.4709C110.002 18.4709 109.776 18.7343 109.776 19.1858C109.776 20.2394 113.04 20.1829 113.04 22.3183C113.04 23.4753 112.099 24.3501 110.547 24.3501C108.995 24.3501 107.847 23.9456 107.951 22.0831L109.766 22.0925Z" fill="#76888F"/>
<path id="Vector_30" d="M115.787 14.7175V16.1756H113.905V14.7175H115.787ZM115.787 24.2278H113.905V17.5678H115.787V24.2278Z" fill="#76888F"/>
<path id="Vector_31" d="M116.408 17.5679H117.16V16.5143L119.041 15.6865V17.5679H119.982V18.7155H119.041V22.2712C119.041 22.7698 119.041 23.099 119.634 23.099C119.744 23.1087 119.854 23.1087 119.963 23.099V24.2467C119.651 24.2873 119.337 24.3093 119.023 24.3125C117.414 24.3125 117.207 23.2495 117.207 22.8357V18.7155H116.464L116.408 17.5679Z" fill="#76888F"/>
<path id="Vector_32" d="M121.939 24.2749L120.133 17.5679H122.014L122.955 22.2712L123.952 17.5679H125.739L123.171 26.73H121.224L121.939 24.2749Z" fill="#76888F"/>
</g>
</g>
</g>
</g>
</g>
<defs>
<clipPath id="clip0_1_4377">
<rect width="124.978" height="26.48" fill="white" transform="translate(0.760986 0.25)"/>
</clipPath>
</defs>
</svg>
