<svg width="42" height="43" viewBox="0 0 42 43" fill="none" xmlns="http://www.w3.org/2000/svg">
<g id="globe">
<mask id="mask0_1_4814" style="mask-type:alpha" maskUnits="userSpaceOnUse" x="0" y="0" width="42" height="43">
<rect id="Bounding box" y="0.22998" width="42" height="42" fill="#D9D9D9"/>
</mask>
<g mask="url(#mask0_1_4814)">
<path id="globe_2" d="M21 38.73C18.5792 38.73 16.3042 38.2706 14.175 37.3519C12.0458 36.4331 10.1937 35.1862 8.61875 33.6112C7.04375 32.0362 5.79688 30.1841 4.87813 28.055C3.95937 25.9258 3.5 23.6508 3.5 21.23C3.5 18.8091 3.95937 16.5341 4.87813 14.405C5.79688 12.2758 7.04375 10.4237 8.61875 8.84873C10.1937 7.27373 12.0458 6.02686 14.175 5.10811C16.3042 4.18936 18.5792 3.72998 21 3.72998C23.4208 3.72998 25.6958 4.18936 27.825 5.10811C29.9542 6.02686 31.8063 7.27373 33.3813 8.84873C34.9563 10.4237 36.2031 12.2758 37.1219 14.405C38.0406 16.5341 38.5 18.8091 38.5 21.23C38.5 23.6508 38.0406 25.9258 37.1219 28.055C36.2031 30.1841 34.9563 32.0362 33.3813 33.6112C31.8063 35.1862 29.9542 36.4331 27.825 37.3519C25.6958 38.2706 23.4208 38.73 21 38.73ZM21 35.23C24.9083 35.23 28.2188 33.8737 30.9312 31.1612C33.6438 28.4487 35 25.1383 35 21.23C35 21.0258 34.9927 20.8144 34.9781 20.5956C34.9635 20.3769 34.9563 20.1946 34.9563 20.0487C34.8104 20.8946 34.4167 21.5946 33.775 22.1487C33.1333 22.7029 32.375 22.98 31.5 22.98H28C27.0375 22.98 26.2135 22.6373 25.5281 21.9519C24.8427 21.2664 24.5 20.4425 24.5 19.48V17.73H17.5V14.23C17.5 13.2675 17.8427 12.4435 18.5281 11.7581C19.2135 11.0727 20.0375 10.73 21 10.73H22.75C22.75 10.0591 22.9323 9.46852 23.2969 8.95811C23.6615 8.44769 24.1062 8.03206 24.6313 7.71123C24.0479 7.5654 23.4573 7.44873 22.8594 7.36123C22.2615 7.27373 21.6417 7.22998 21 7.22998C17.0917 7.22998 13.7813 8.58623 11.0688 11.2987C8.35625 14.0112 7 17.3216 7 21.23H15.75C17.675 21.23 19.3229 21.9154 20.6938 23.2862C22.0646 24.6571 22.75 26.305 22.75 28.23V29.98H17.5V34.7925C18.0833 34.9383 18.6594 35.0477 19.2281 35.1206C19.7969 35.1935 20.3875 35.23 21 35.23Z" fill="#47A7FF"/>
</g>
</g>
</svg>
