<svg width="125" height="37" viewBox="0 0 125 37" fill="none" xmlns="http://www.w3.org/2000/svg">
<g id="Leeds-1.svg" clip-path="url(#clip0_1_4783)">
<g id="Layer 2">
<g id="Layer 1">
<g id="Layer 2_2">
<g id="Capa 1">
<path id="Vector" d="M117.728 18.4504C117.514 18.4504 117.308 18.3652 117.157 18.2137C117.005 18.0621 116.92 17.8565 116.92 17.6421C116.92 17.4327 117.001 17.2315 117.146 17.0807C117.292 16.9299 117.49 16.8414 117.699 16.8338C117.805 16.8338 117.91 16.8547 118.008 16.8953C118.106 16.936 118.196 16.9955 118.271 17.0706C118.346 17.1456 118.405 17.2347 118.446 17.3328C118.486 17.4309 118.507 17.536 118.507 17.6421C118.507 17.8565 118.422 18.0621 118.271 18.2137C118.119 18.3652 117.913 18.4504 117.699 18.4504M117.699 16.5987C117.422 16.5987 117.157 16.7086 116.961 16.9043C116.766 17.1 116.656 17.3654 116.656 17.6421C116.656 17.9149 116.764 18.1766 116.957 18.3695C117.15 18.5625 117.412 18.6708 117.684 18.6708C117.938 18.6406 118.172 18.5184 118.341 18.3275C118.511 18.1366 118.604 17.8901 118.604 17.6348C118.604 17.3794 118.511 17.133 118.341 16.942C118.172 16.7511 117.938 16.6289 117.684 16.5987M115.612 14.6H115.965V11.455H116.7V10.8965H115.598L115.612 14.6ZM116.759 8.20713H117.052V7.91321H116.553V8.76559H116.759V8.20713ZM117.17 14.6H117.581V11.455H118.316V10.8965H117.229L117.17 14.6ZM115.274 10.3675H120.168L120.403 10.0589H115.054L115.274 10.3675ZM118.713 14.6H119.051V11.455H119.801V10.8965H118.698L118.713 14.6ZM121.432 16.0696H119.83V15.423H115.598V16.0696H113.996V14.6H114.29V9.85311H114.73V7.39884H120.697V9.85311H121.153V14.6H121.432V16.0696ZM115.671 5.64999H119.757L119.977 7.11961H115.465L115.671 5.64999ZM117.714 4.18037L119.757 5.40015H115.686L117.714 4.18037ZM101.607 0.329956V23.1238H113.555V16.2607H115.598V23.1238H115.877V15.614H119.58V23.1238H119.83V16.2607H121.873V23.1238H124.621V0.329956H101.607ZM117.67 8.20713H117.964V7.91321H117.464V8.76559H117.67V8.20713ZM118.566 8.20713H118.875V7.91321H118.375V8.76559H118.566V8.20713Z" fill="#76888F"/>
<path id="Vector_2" d="M7.24226 32.5587V27.4445H5.49341V32.6616C5.5153 32.8938 5.49014 33.128 5.41944 33.3502C5.34873 33.5724 5.23394 33.7781 5.08192 33.9549C4.8868 34.139 4.6551 34.28 4.40189 34.3686C4.14868 34.4572 3.87964 34.4915 3.6123 34.4693C3.34461 34.4964 3.07424 34.4644 2.8203 34.3755C2.56635 34.2866 2.33502 34.143 2.14268 33.9549C1.87149 33.5793 1.73199 33.1247 1.74588 32.6616V27.5179H0.0117229V32.8086C-0.0341657 33.6702 0.261554 34.5151 0.834711 35.16C1.60018 35.8008 2.58825 36.1126 3.58291 36.0271C4.09198 36.0626 4.60298 35.995 5.08531 35.8283C5.56764 35.6617 6.01136 35.3993 6.38988 35.0571C6.68507 34.7352 6.91262 34.3573 7.05904 33.9458C7.20545 33.5343 7.26776 33.0976 7.24226 32.6616" fill="#76888F"/>
<path id="Vector_3" d="M17.2798 35.8213V27.4445H15.5457V33.0143C15.3252 32.6763 15.0901 32.3383 14.7668 31.9121L11.2397 27.5032H9.49084V35.8801H11.225V30.0016C11.4699 30.3837 11.7345 30.7511 12.0186 31.1038L15.6633 35.7625L17.2798 35.8213Z" fill="#76888F"/>
<path id="Vector_4" d="M21.3801 27.4445H19.6312V35.8213H21.3801V27.4445Z" fill="#76888F"/>
<path id="Vector_5" d="M30.7122 27.4445H28.9339L27.0234 31.9562C26.803 32.5147 26.6119 32.9996 26.465 33.4258C26.2886 32.9555 26.0976 32.4265 25.8771 31.868L24.1724 27.4592H22.2618L25.7008 35.9095H27.0087L30.7122 27.4445Z" fill="#76888F"/>
<path id="Vector_6" d="M36.5465 35.8213V34.3958H33.4456V32.2648H36.1203V30.8246H33.4456V28.87H36.1203L36.5759 27.4445H31.7114V35.8213H36.5465Z" fill="#76888F"/>
<path id="Vector_7" d="M42.234 30.0311C42.2398 30.1944 42.2132 30.3573 42.1557 30.5103C42.0981 30.6632 42.0107 30.8033 41.8986 30.9222C41.7865 31.0411 41.6519 31.1366 41.5026 31.2031C41.3533 31.2697 41.1923 31.3059 41.0289 31.3096H40.2059V28.8995H40.9407C41.2422 28.8617 41.5466 28.9436 41.7884 29.1277C42.0302 29.3118 42.1902 29.5834 42.234 29.8841V30.0311ZM44.9234 35.8214C44.2628 34.4521 43.4226 33.177 42.425 32.0298C42.855 31.8537 43.2237 31.555 43.4851 31.1708C43.7464 30.7867 43.8889 30.334 43.8946 29.8694C43.8946 28.5614 43.0863 27.4592 40.8525 27.4592H38.457V35.8361H40.2059V32.6617H40.8525C41.1611 32.7793 41.6608 33.7198 42.9394 35.8949L44.9234 35.8214Z" fill="#76888F"/>
<path id="Vector_8" d="M51.037 33.47C51.037 30.8394 47.4217 30.9569 47.4217 29.502C47.4217 29.017 47.9067 28.7378 48.5386 28.7378C49.2467 28.7693 49.9348 28.9818 50.5373 29.3551V27.8854C49.9149 27.5435 49.2192 27.3569 48.5092 27.3417C48.1817 27.2783 47.8448 27.2811 47.5183 27.35C47.1919 27.419 46.8826 27.5526 46.6086 27.743C46.3347 27.9334 46.1016 28.1767 45.9232 28.4586C45.7448 28.7405 45.6247 29.0553 45.57 29.3844V29.7225C45.5569 30.2612 45.7456 30.7853 46.099 31.1921C47.1131 32.3531 49.1558 32.5441 49.1558 33.661C49.1558 34.293 48.4798 34.5134 47.8479 34.5134C47.1598 34.4992 46.4927 34.2734 45.9374 33.8668L45.2614 35.1307C46.0525 35.6588 46.9849 35.9355 47.9361 35.9243C49.6555 35.9243 51.0076 34.969 51.0076 33.4406" fill="#76888F"/>
<path id="Vector_9" d="M54.1967 27.4445H52.4479V35.8213H54.1967V27.4445Z" fill="#76888F"/>
<path id="Vector_10" d="M62.2943 27.4445H55.4165V28.87H57.8855V35.8213H59.6196V28.87H61.8828L62.2943 27.4445Z" fill="#76888F"/>
<path id="Vector_11" d="M69.9216 27.4445H68.114L66.8207 29.8105C66.6297 30.1633 66.3945 30.6041 66.2182 30.9862C66.0418 30.6041 65.792 30.1339 65.6009 29.7812L64.3223 27.4445H62.3824L65.3217 32.5V35.8213H67.0265V32.5293L69.9216 27.4445Z" fill="#76888F"/>
<path id="Vector_12" d="M80.1503 31.6624C80.2064 31.9931 80.1962 32.3317 80.1202 32.6584C80.0442 32.9851 79.9039 33.2934 79.7075 33.5654C79.5111 33.8373 79.2626 34.0675 78.9764 34.2424C78.6901 34.4173 78.3719 34.5335 78.0404 34.5842C77.7088 34.635 77.3704 34.6192 77.045 34.5378C76.7195 34.4564 76.4136 34.3111 76.1449 34.1102C75.8762 33.9094 75.6502 33.6571 75.48 33.3681C75.3098 33.079 75.1988 32.7589 75.1536 32.4266C75.1242 32.1727 75.1242 31.9162 75.1536 31.6624C75.099 31.3304 75.1105 30.9908 75.1874 30.6633C75.2643 30.3357 75.405 30.0266 75.6016 29.7535C75.7982 29.4805 76.0468 29.2489 76.333 29.0721C76.6193 28.8953 76.9376 28.7767 77.2698 28.7231H77.6666C79.1362 28.7231 80.1503 29.8106 80.1503 31.6624ZM82.002 31.6624C82.0355 30.5838 81.6572 29.5329 80.9439 28.7231C80.5159 28.2938 80.0039 27.9574 79.44 27.7349C78.8762 27.5124 78.2724 27.4085 77.6666 27.4299C77.0898 27.4163 76.5162 27.5201 75.9807 27.7348C75.4451 27.9495 74.9587 28.2708 74.551 28.679C73.754 29.5249 73.3166 30.6472 73.3312 31.8093C73.3159 32.4074 73.4271 33.002 73.6576 33.5541C73.8881 34.1062 74.2326 34.6034 74.6686 35.0131C75.5381 35.7756 76.6724 36.1659 77.827 36.0999C78.9816 36.034 80.064 35.517 80.841 34.6604C81.5705 33.8565 81.9694 32.8067 81.9579 31.7211" fill="#76888F"/>
<path id="Vector_13" d="M88.4829 27.4445H83.6332V35.8213H85.382V32.2795H88.0127V30.854H85.382V28.87H88.0567L88.4829 27.4445Z" fill="#76888F"/>
<path id="Vector_14" d="M97.4183 35.8214V34.3812H94.4791V27.4592H92.7302V35.8214H97.4183Z" fill="#76888F"/>
<path id="Vector_15" d="M103.385 35.8214V34.3958H100.284V32.2649H102.959V30.8247H100.284V28.8848H102.959L103.414 27.4592H98.5646V35.8214H103.385Z" fill="#76888F"/>
<path id="Vector_16" d="M109.748 35.8214V34.3958H106.647V32.2649H109.322V30.8247H106.647V28.8848H109.293L109.748 27.4592H104.913V35.8214H109.748Z" fill="#76888F"/>
<path id="Vector_17" d="M116.817 31.6182C116.845 31.9562 116.806 32.2964 116.703 32.6192C116.599 32.942 116.432 33.2411 116.212 33.4993C115.992 33.7574 115.723 33.9696 115.421 34.1234C115.119 34.2773 114.789 34.3699 114.451 34.3958C114.261 34.4178 114.068 34.4178 113.878 34.3958H112.923V28.8994H113.849C114.185 28.8474 114.528 28.8625 114.858 28.9439C115.188 29.0253 115.499 29.1713 115.772 29.3736C116.046 29.5759 116.276 29.8304 116.45 30.1223C116.625 30.4143 116.739 30.7379 116.788 31.0745C116.81 31.2551 116.81 31.4377 116.788 31.6182M118.654 31.6182C118.654 29.1199 116.979 27.5033 113.996 27.5033H111.247V35.8654H113.863C116.803 35.8654 118.684 34.1901 118.684 31.6182" fill="#76888F"/>
<path id="Vector_18" d="M124.93 33.4699C124.93 30.8393 121.329 30.9568 121.329 29.5166C121.329 29.0316 121.814 28.7524 122.446 28.7524C123.149 28.7837 123.833 28.9964 124.43 29.3697V27.9C123.782 27.5463 123.052 27.3689 122.314 27.3857C121.98 27.3555 121.644 27.3925 121.324 27.4942C121.005 27.596 120.71 27.7606 120.455 27.9783C120.2 28.196 119.992 28.4625 119.841 28.762C119.691 29.0615 119.602 29.388 119.58 29.7224C119.574 30.2599 119.762 30.7817 120.109 31.192C121.123 32.3383 123.151 32.5293 123.151 33.6463C123.151 34.2782 122.475 34.4986 121.858 34.4986C121.17 34.4844 120.503 34.2587 119.948 33.852L119.272 35.1159C120.08 35.6399 121.027 35.911 121.99 35.8948C123.695 35.8948 125.047 34.9395 125.047 33.4258" fill="#76888F"/>
</g>
</g>
</g>
</g>
</g>
<defs>
<clipPath id="clip0_1_4783">
<rect width="124.977" height="35.8" fill="white" transform="translate(0.0117188 0.329956)"/>
</clipPath>
</defs>
</svg>
