<svg width="126" height="66" viewBox="0 0 126 66" fill="none" xmlns="http://www.w3.org/2000/svg">
<g id="LMU_Muenchen_Logo.svg">
<path id="Vector" d="M60.0729 6.35938H6.34796V60.1172H60.0729V6.35938Z" fill="#76888F"/>
<path id="Vector_2" d="M119.652 6.35938H65.9272V60.1172H119.652V6.35938Z" fill="#76888F"/>
<path id="Vector_3" d="M38.8427 48.9347V37.4891H45.1904V49.5596C45.1904 50.4147 45.3877 51.0231 45.7824 51.3849C46.1771 51.7467 46.7033 51.9276 47.3611 51.9276C48.0189 51.9276 48.5451 51.7467 48.9562 51.3849C49.3509 51.0231 49.5647 50.4147 49.5647 49.5596V37.4891H55.8795V48.9347C55.8795 50.2996 55.6821 51.4672 55.2546 52.4209C54.8434 53.3747 54.2679 54.1476 53.5279 54.7561C52.7878 55.3645 51.8834 55.7921 50.8309 56.0717C49.7785 56.3512 48.6273 56.4828 47.3611 56.4828C46.1113 56.4828 44.9766 56.3512 43.9241 56.0717C42.8881 55.8086 41.9837 55.3645 41.2272 54.7561C40.4707 54.1476 39.8952 53.3747 39.4676 52.4209C39.0565 51.4672 38.8427 50.2996 38.8427 48.9347ZM27.6439 51.796C27.6439 51.9276 27.7096 51.9934 27.8412 51.9934C27.9234 51.9934 27.9728 51.9276 27.9728 51.796C28.1372 50.5956 28.351 49.28 28.5977 47.8493C28.8608 46.4186 29.1074 45.0208 29.3706 43.6724C29.6337 42.3239 29.8803 41.0741 30.1106 39.9723C30.3408 38.854 30.5381 38.0318 30.6532 37.4891H36.5898V55.9894H33.0213V40.4163C33.0213 40.3176 32.9555 40.2847 32.8239 40.2847C32.7582 40.2847 32.7088 40.3341 32.7088 40.4163C32.5608 41.1399 32.4128 41.9621 32.2484 42.8666C32.0839 43.771 31.8866 44.8235 31.6399 46.0404C31.4097 47.2573 31.1137 48.6716 30.7848 50.2831C30.4395 51.9112 30.0448 53.8023 29.5843 55.9894H25.8678C25.4074 53.8352 25.0292 51.9769 24.7003 50.4147C24.3714 48.8524 24.0918 47.4711 23.8616 46.2871C23.6313 45.103 23.4176 44.0506 23.2367 43.1132C23.0558 42.1923 22.8749 41.2879 22.694 40.4163C22.694 40.3176 22.6282 40.2847 22.4967 40.2847C22.4309 40.2847 22.3815 40.3341 22.3815 40.4163V55.9894H19.109V37.4891H25.062C25.1607 37.8838 25.2594 38.41 25.3909 39.0514C25.5225 39.6927 25.654 40.3999 25.8185 41.1892C25.9829 41.9785 26.1309 42.8337 26.2954 43.7217C26.4598 44.6261 26.6243 45.5471 26.7887 46.4844C26.9532 47.4218 27.1012 48.3427 27.2492 49.2471C27.4136 50.1516 27.5287 51.0067 27.6439 51.796ZM10.1796 37.4891H11.9885V54.6245H17.2672V55.9894H10.1796V37.4891Z" fill="white"/>
<path id="Vector_4" d="M69.8739 34.3153V30.385H70.5975V33.7397H72.5544V34.3153H69.8739Z" fill="white"/>
<path id="Vector_5" d="M75.2349 34.3976C74.3962 34.3976 73.5905 34.1016 73.5905 32.7531V30.4015H74.3305V32.8189C74.3305 33.4438 74.6265 33.8549 75.2349 33.8549C75.8269 33.8549 76.1229 33.4602 76.1229 32.8189V30.4015H76.863V32.7366C76.863 34.0029 76.0407 34.3976 75.2349 34.3976Z" fill="white"/>
<path id="Vector_6" d="M79.5105 30.9441H79.0994V33.7562H79.5105C80.3492 33.7562 80.8096 33.3944 80.8096 32.3255C80.7932 31.4046 80.3492 30.9441 79.5105 30.9441ZM79.5434 34.3153H78.3594V30.385H79.5434C80.9412 30.385 81.5661 31.1908 81.5661 32.3255C81.5661 33.6082 80.8096 34.3153 79.5434 34.3153Z" fill="white"/>
<path id="Vector_7" d="M86.6475 34.3153H85.8582L85.1017 31.5526L84.3453 34.3153H83.5559L82.3719 30.385H83.1777L83.9835 33.4602L84.7399 30.7139H85.5128L86.2693 33.4602L87.0751 30.385H87.8315L86.6475 34.3153Z" fill="white"/>
<path id="Vector_8" d="M89.6898 30.385H88.9498V34.3153H89.6898V30.385Z" fill="white"/>
<path id="Vector_9" d="M92.9459 34.3976C91.7454 34.3976 91.0383 33.5754 91.0383 32.3256C91.0383 30.9607 92.0414 30.3193 92.9459 30.3193C93.5872 30.3193 93.9983 30.5167 94.2779 30.7633L93.9819 31.306C93.7681 31.0593 93.4721 30.8456 92.9623 30.8456C92.3045 30.8456 91.8112 31.4376 91.8112 32.3256C91.8112 33.2465 92.3045 33.8714 92.9952 33.8714C93.3899 33.8714 93.6201 33.7727 93.7188 33.6741V32.6709H92.8307V32.1283H94.4094V34.0194C94.0805 34.2332 93.6201 34.3976 92.9459 34.3976Z" fill="white"/>
<path id="Vector_10" d="M96.9748 32.3091H95.429V32.8024H96.9748V32.3091Z" fill="white"/>
<path id="Vector_11" d="M73.426 41.5345L73.2944 38.5416L72.2913 40.9919H71.6335L70.6139 38.5416L70.4988 41.5345H69.7753L70.0055 37.6042H70.9264L71.9953 40.2025L73.0149 37.6042H73.9358L74.166 41.5345H73.426Z" fill="white"/>
<path id="Vector_12" d="M77.0603 38.3278L76.4518 40.0381H77.6852L77.0603 38.3278ZM78.2114 41.5345L77.8661 40.5807H76.2545L75.9091 41.5345H75.1362L76.6985 37.6042H77.4714L79.0336 41.5345H78.2114Z" fill="white"/>
<path id="Vector_13" d="M82.635 41.5345L81.5661 39.9558L80.4808 41.5345H79.5928L81.1057 39.4954L79.7243 37.6042H80.6452L81.6155 39.0678L82.5528 37.6042H83.4408L82.043 39.4954L83.556 41.5345H82.635Z" fill="white"/>
<path id="Vector_14" d="M85.3648 37.6042H84.6248V41.5345H85.3648V37.6042Z" fill="white"/>
<path id="Vector_15" d="M90.4956 41.5345L90.364 38.5416L89.3609 40.9919H88.7031L87.6835 38.5416L87.552 41.5345H86.8448L87.0751 37.6042H87.996L89.0649 40.2025L90.0845 37.6042H91.0054L91.2356 41.5345H90.4956Z" fill="white"/>
<path id="Vector_16" d="M93.4556 37.6042H92.7156V41.5345H93.4556V37.6042Z" fill="white"/>
<path id="Vector_17" d="M97.6984 41.5345V40.959H95.7579V37.6042H95.0179V41.5345H97.6984Z" fill="white"/>
<path id="Vector_18" d="M99.6882 37.6042H98.9482V41.5345H99.6882V37.6042Z" fill="white"/>
<path id="Vector_19" d="M102.698 38.3278L102.089 40.0381H103.322L102.698 38.3278ZM103.849 41.5345L103.503 40.5807H101.892L101.546 41.5345H100.774L102.336 37.6042H103.109L104.671 41.5345H103.849Z" fill="white"/>
<path id="Vector_20" d="M108.108 41.5345L106.463 38.6074V41.5345H105.74V37.6042H106.694L108.338 40.5314V37.6042H109.062V41.5345H108.108Z" fill="white"/>
<path id="Vector_21" d="M113.239 40.4493C113.239 39.8573 112.877 39.5777 112.433 39.3804L111.66 39.0515C111.413 38.9528 111.167 38.8213 111.167 38.5417C111.167 38.3115 111.364 38.0648 111.792 38.0648C112.285 38.0648 112.564 38.2786 112.778 38.5581L113.091 38.0648C112.811 37.7195 112.318 37.5386 111.792 37.5386C111.167 37.5386 110.41 37.9168 110.41 38.6733C110.41 39.1502 110.739 39.4791 111.167 39.6599L111.94 39.9888C112.252 40.1204 112.482 40.2684 112.482 40.5808C112.482 40.8275 112.252 41.1071 111.759 41.1071C111.249 41.1071 110.936 40.8769 110.64 40.5644L110.328 41.0577C110.509 41.2715 110.953 41.6333 111.742 41.6333C112.926 41.6169 113.239 40.844 113.239 40.4493Z" fill="white"/>
<path id="Vector_22" d="M115.738 39.5283H114.192V40.0217H115.738V39.5283Z" fill="white"/>
<path id="Vector_23" d="M71.4526 48.836C70.5975 48.836 69.8081 48.5236 69.8081 47.1916V44.84H70.5481V47.2573C70.5481 47.8822 70.8441 48.3098 71.4526 48.3098C72.0446 48.3098 72.3406 47.9151 72.3406 47.2573V44.84H73.0806V47.1916C73.0806 48.4414 72.2748 48.836 71.4526 48.836Z" fill="white"/>
<path id="Vector_24" d="M76.9451 48.7538L75.3007 45.8266V48.7538H74.5771V44.8235H75.5309L77.1918 47.7506V44.8235H77.8989V48.7538H76.9451Z" fill="white"/>
<path id="Vector_25" d="M80.2177 44.8235H79.4777V48.7538H80.2177V44.8235Z" fill="white"/>
<path id="Vector_26" d="M83.5395 48.7538H82.7501L81.1879 44.8235H82.0101L83.1612 48.0138L84.3124 44.8235H85.1017L83.5395 48.7538Z" fill="white"/>
<path id="Vector_27" d="M86.1871 48.7538V44.8235H88.8347V45.3991H86.9271V46.4351H88.6867V46.9942H86.9271V48.1782H88.9169V48.7538H86.1871Z" fill="white"/>
<path id="Vector_28" d="M91.5316 45.3826H90.9067V46.5173H91.5316C92.0908 46.5173 92.2388 46.2377 92.2388 45.9088C92.2388 45.6293 92.0085 45.3826 91.5316 45.3826ZM92.4525 48.7538L91.6632 47.5698C91.4659 47.2738 91.285 47.06 91.1041 47.06H90.9232V48.7538H90.1832V44.8235H91.6961C92.3868 44.8235 93.0117 45.1853 93.0117 45.9253C93.0117 46.6653 92.3374 46.9449 92.0085 46.9777C92.1236 47.0435 92.2716 47.2409 92.321 47.3231L93.3406 48.7702H92.4525V48.7538Z" fill="white"/>
<path id="Vector_29" d="M95.5112 48.8361C94.7383 48.8361 94.2943 48.4743 94.097 48.2605L94.4094 47.7672C94.689 48.0796 95.0179 48.3098 95.5277 48.3098C96.021 48.3098 96.2512 48.0303 96.2512 47.7836C96.2512 47.4712 96.021 47.3232 95.7086 47.1916L94.9357 46.8627C94.5081 46.6818 94.1792 46.3694 94.1792 45.876C94.1792 45.1196 94.9357 44.7413 95.5606 44.7413C96.0868 44.7413 96.5801 44.9387 96.8597 45.2676L96.5473 45.7609C96.317 45.4813 96.0375 45.2676 95.5606 45.2676C95.133 45.2676 94.9357 45.5142 94.9357 45.7445C94.9357 46.024 95.1823 46.1556 95.429 46.2542L96.2019 46.5831C96.6459 46.7805 97.0077 47.06 97.0077 47.6521C97.0077 48.0632 96.6953 48.8361 95.5112 48.8361Z" fill="white"/>
<path id="Vector_30" d="M99.0797 44.8235H98.3397V48.7538H99.0797V44.8235Z" fill="white"/>
<path id="Vector_31" d="M102.221 45.4155V48.7538H101.497V45.4155H100.165V44.8235H103.553V45.4155H102.221Z" fill="white"/>
<path id="Vector_32" d="M106.611 44.4618C106.398 44.4618 106.233 44.2809 106.233 44.0835C106.233 43.8862 106.398 43.7053 106.611 43.7053C106.825 43.7053 106.99 43.8862 106.99 44.0835C106.99 44.2809 106.809 44.4618 106.611 44.4618ZM106.052 45.5471L105.444 47.2574H106.677L106.052 45.5471ZM105.51 44.4618C105.296 44.4618 105.131 44.2809 105.131 44.0835C105.131 43.8862 105.296 43.7053 105.51 43.7053C105.723 43.7053 105.888 43.8862 105.888 44.0835C105.904 44.2809 105.723 44.4618 105.51 44.4618ZM107.22 48.7538L106.875 47.8001H105.263L104.918 48.7538H104.145L105.707 44.8236H106.48L108.042 48.7538H107.22Z" fill="white"/>
<path id="Vector_33" d="M110.673 45.4155V48.7538H109.933V45.4155H108.618V44.8235H112.005V45.4155H110.673Z" fill="white"/>
<path id="Vector_34" d="M73.426 55.973L73.2944 52.9801L72.2913 55.4303H71.6335L70.6139 52.9801L70.4988 55.973H69.7753L70.0055 52.0427H70.9264L71.9953 54.641L73.0149 52.0427H73.9358L74.166 55.973H73.426Z" fill="white"/>
<path id="Vector_35" d="M77.7016 51.681C77.4878 51.681 77.3234 51.5001 77.3234 51.3028C77.3234 51.1055 77.4878 50.9246 77.7016 50.9246C77.9154 50.9246 78.0963 51.1055 78.0963 51.3028C78.0963 51.5001 77.8989 51.681 77.7016 51.681ZM76.6162 51.681C76.4025 51.681 76.238 51.5001 76.238 51.3028C76.238 51.1055 76.4025 50.9246 76.6162 50.9246C76.83 50.9246 77.0109 51.1055 77.0109 51.3028C77.0109 51.5001 76.8136 51.681 76.6162 51.681ZM77.2083 56.0553C76.3531 56.0553 75.5638 55.7593 75.5638 54.4108V52.0592H76.3038V54.4931C76.3038 55.118 76.5998 55.5455 77.2083 55.5455C77.8003 55.5455 78.0963 55.1509 78.0963 54.4931V52.0592H78.8363V54.4108C78.8363 55.6442 78.014 56.0553 77.2083 56.0553Z" fill="white"/>
<path id="Vector_36" d="M82.7008 55.973L81.0563 53.0459V55.973H80.3328V52.0427H81.2866L82.931 54.9699V52.0427H83.6546V55.973H82.7008Z" fill="white"/>
<path id="Vector_37" d="M86.8613 56.0553C85.5786 56.0553 84.9866 55.0686 84.9866 53.9833C84.9866 52.9144 85.7102 51.9606 86.8613 51.9606C87.4204 51.9606 87.8645 52.1415 88.1605 52.4539L87.8645 52.9966C87.6507 52.7499 87.4204 52.4868 86.8613 52.4868C86.1871 52.4868 85.7431 53.1281 85.7431 53.9668C85.7431 54.7891 86.22 55.4962 86.8613 55.4962C87.3382 55.4962 87.6342 55.3317 87.9796 54.9864L88.2591 55.5455C87.8151 55.9073 87.4862 56.0553 86.8613 56.0553Z" fill="white"/>
<path id="Vector_38" d="M91.9098 55.973V54.197H90.1503V55.973H89.4267V52.0427H90.1503V53.6543H91.9098V52.0427H92.6499V55.973H91.9098Z" fill="white"/>
<path id="Vector_39" d="M94.1957 55.973V52.0427H96.8433V52.6183H94.9357V53.6543H96.6953V54.2134H94.9357V55.381H96.9255V55.973H94.1957Z" fill="white"/>
<path id="Vector_40" d="M100.543 55.973L98.8989 53.0459V55.973H98.1753V52.0427H99.1291L100.79 54.9699V52.0427H101.514V55.973H100.543Z" fill="white"/>
</g>
</svg>
