<svg width="143" height="22" viewBox="0 0 143 22" fill="none" xmlns="http://www.w3.org/2000/svg">
<g id="Sanako-Logo.svg" clip-path="url(#clip0_94_1198)">
<path id="Vector" d="M78.8319 21.203H95.0376V4.97964C95.0376 4.32867 94.9102 3.68406 94.6634 3.08264C94.4163 2.48121 94.0542 1.93474 93.5974 1.47443C93.141 1.01412 92.5992 0.64898 92.0025 0.399861C91.4062 0.150742 90.767 0.022522 90.1214 0.022522H75.4711C75.4711 0.545272 75.4711 1.2618 75.4711 2.05044C75.4711 2.83907 75.4711 3.53757 75.4711 4.06482H88.8206C89.1084 4.04628 89.3969 4.0876 89.668 4.18628C89.939 4.28496 90.1873 4.43884 90.397 4.63837C90.6062 4.83789 90.773 5.07877 90.8864 5.34605C90.9998 5.61332 91.057 5.90125 91.0555 6.19187L91.0779 7.35907V8.26035H78.8319C77.5282 8.26035 76.2775 8.78261 75.3555 9.71226C74.4335 10.6419 73.9157 11.9028 73.9157 13.2175V16.2594C73.9191 17.5717 74.4388 18.8291 75.3604 19.7558C76.2821 20.6826 77.5305 21.203 78.8319 21.203ZM77.938 14.4027C77.9403 14.1156 78.0009 13.8321 78.1166 13.5696C78.2318 13.3072 78.3997 13.0715 78.609 12.8771C78.8187 12.6828 79.0655 12.5338 79.3346 12.4397C79.6034 12.3455 79.8889 12.3081 80.1728 12.3297H91.0286V17.1246H90.1346H88.8385H80.1728C78.8854 17.1246 77.938 16.2549 77.938 15.0561V14.4027Z" fill="#03AA6D"/>
<path id="Vector_2" d="M109.795 9.2608L110.407 8.64343L118.979 0.0045166L113.268 0.018036L104.615 8.7561L103.087 10.2973V8.12068L103.091 0.018036H99.0823L99.0778 21.2075H103.087V16.3946V16.0205L103.35 15.7592L106.3 12.7804L106.957 12.1224L107.587 12.8029L115.364 21.2075L120.888 21.212L110.385 9.89622L109.795 9.2608Z" fill="#03AA6D"/>
<path id="Vector_3" d="M138.045 0.0315552H126.738C125.434 0.0315552 124.184 0.553822 123.262 1.48346C122.34 2.4131 121.822 3.67396 121.822 4.98868V16.2684C121.822 17.5831 122.34 18.8439 123.262 19.7736C124.184 20.7032 125.434 21.2255 126.738 21.2255H138.045C139.349 21.2255 140.6 20.7032 141.522 19.7736C142.444 18.8439 142.962 17.5831 142.962 16.2684V4.95714C142.953 3.64789 142.432 2.39512 141.511 1.47229C140.59 0.549462 139.344 0.0315287 138.045 0.0315552ZM138.628 14.9029C138.628 15.5005 138.393 16.0736 137.973 16.4962C137.554 16.9188 136.986 17.1562 136.393 17.1562H128.526C127.933 17.1562 127.365 16.9188 126.946 16.4962C126.527 16.0736 126.291 15.5005 126.291 14.9029V6.30907C126.291 5.71149 126.527 5.13835 126.946 4.7158C127.365 4.29325 127.933 4.05585 128.526 4.05585H136.393C136.986 4.05585 137.554 4.29325 137.973 4.7158C138.393 5.13835 138.628 5.71149 138.628 6.30907V14.9029Z" fill="#03AA6D"/>
<path id="Vector_4" d="M19.7032 16.2638V13.222C19.7032 11.9073 19.1852 10.6464 18.2632 9.71678C17.3413 8.78714 16.0908 8.26488 14.787 8.26488H6.38471C6.09712 8.28815 5.80786 8.25055 5.53555 8.15444C5.2632 8.05834 5.01382 7.9059 4.80338 7.70687C4.59297 7.50784 4.42613 7.26665 4.31361 6.99877C4.20109 6.73086 4.1454 6.44221 4.15006 6.15135C4.15184 5.86316 4.21212 5.57837 4.32707 5.31451C4.44205 5.05065 4.60935 4.81333 4.81862 4.61707C5.02792 4.42081 5.27483 4.26977 5.54415 4.17325C5.81347 4.07673 6.09951 4.03677 6.38471 4.05584H18.7199V0H5.04392C3.74005 0 2.48959 0.522266 1.56762 1.45191C0.645648 2.38155 0.127689 3.64241 0.127689 4.95713V7.39062C0.127689 8.70532 0.645648 9.9662 1.56762 10.8958C2.48959 11.8255 3.74005 12.3477 5.04392 12.3477H13.4462C14.7378 12.3477 15.6808 13.222 15.6808 14.4207V15.1057C15.6808 16.3044 14.7423 17.1742 13.4462 17.1742H0.0383034V21.23H14.787C15.4333 21.23 16.0733 21.1015 16.6704 20.8518C17.2674 20.6021 17.8098 20.2362 18.2664 19.7749C18.7231 19.3137 19.085 18.7661 19.3315 18.1636C19.5781 17.5612 19.7043 16.9156 19.7032 16.2638Z" fill="#03AA6D"/>
<path id="Vector_5" d="M63.538 4.05584C64.1305 4.05584 64.6992 4.29324 65.1181 4.71579C65.537 5.13834 65.7724 5.71148 65.7724 6.30906V21.1804H69.7952V4.95713C69.7952 3.64241 69.2769 2.38155 68.3549 1.45191C67.4329 0.522266 66.1826 0 64.8789 0H48.6732V21.1804H52.6955V6.30906V4.05584H63.5558H63.538Z" fill="#03AA6D"/>
<path id="Vector_6" d="M28.7222 21.203H44.9235V4.97964C44.9235 4.32867 44.7961 3.68406 44.5493 3.08264C44.3021 2.48121 43.94 1.93474 43.4836 1.47443C43.0268 1.01412 42.485 0.64898 41.8883 0.399861C41.292 0.150742 40.6528 0.022522 40.0072 0.022522H25.3568C25.3568 0.545272 25.3568 1.2618 25.3568 2.05044C25.3568 2.83907 25.3568 3.53757 25.3568 4.06482H38.6978C38.9855 4.04628 39.2736 4.0876 39.5447 4.18628C39.8161 4.28496 40.0641 4.43884 40.2737 4.63837C40.4834 4.83789 40.6502 5.07877 40.7631 5.34605C40.8765 5.61332 40.9341 5.90125 40.9322 6.19187V7.35907V8.26035H28.7222C27.4183 8.26035 26.1679 8.78261 25.2459 9.71226C24.3239 10.6419 23.806 11.9028 23.806 13.2175V16.2594C23.8095 17.5717 24.3291 18.8291 25.2506 19.7558C26.1722 20.6826 27.4206 21.203 28.7222 21.203ZM27.8328 14.4207C27.8328 13.222 28.7714 12.3477 30.0675 12.3477H40.9144V17.1246H40.0205H38.7288H30.063C28.7714 17.1246 27.8283 16.2549 27.8283 15.0561L27.8328 14.4207Z" fill="#03AA6D"/>
</g>
<defs>
<clipPath id="clip0_94_1198">
<rect width="142.923" height="21.23" fill="white" transform="translate(0.0383034)"/>
</clipPath>
</defs>
</svg>
