<svg width="125" height="39" viewBox="0 0 125 39" fill="none" xmlns="http://www.w3.org/2000/svg">
<g id="Turun-Yliopisto.svg" clip-path="url(#clip0_1_4355)">
<g id="Layer 2">
<g id="Layer 1">
<path id="Vector" d="M14.3508 4.39436C14.4222 4.00303 14.4609 3.60643 14.4664 3.20867C14.4656 2.78818 14.4072 2.36979 14.2929 1.96514C14.6707 2.28335 14.9263 2.72291 15.0159 3.20867C14.8781 3.64542 14.6516 4.04905 14.3508 4.39436ZM18.7176 9.28173C18.0347 9.02139 17.3083 8.89379 16.5776 8.90578C16.268 8.8962 15.9581 8.91557 15.6521 8.96362C15.4889 8.57898 15.4006 8.16674 15.3919 7.74901C15.3919 6.79467 15.9124 5.95601 16.4908 5.20411C16.6574 4.94181 16.841 4.69065 17.0403 4.4522L17.2427 4.19193C17.3873 3.98949 17.5608 3.78706 17.7054 3.58462C17.7853 3.45471 17.8722 3.32921 17.9657 3.20867C18.0524 3.03516 18.1392 2.89056 18.226 2.74596C18.3416 2.51461 18.4573 2.28325 18.5441 2.08082C18.6255 2.48045 18.6643 2.88761 18.6597 3.29543V3.7003C18.6364 3.92669 18.5879 4.14978 18.5152 4.36544C18.4801 4.51409 18.4317 4.65927 18.3706 4.79923C18.2862 4.98849 18.1896 5.17204 18.0814 5.3487C18.0217 5.4929 17.9439 5.62894 17.85 5.75357C17.7621 5.88208 17.6847 6.01748 17.6187 6.15844C17.3005 6.65007 17.0403 7.05494 17.0113 7.48873C17.0045 7.55756 17.0144 7.62702 17.0403 7.69117C17.0981 7.8936 17.1849 8.21172 17.5608 8.24063C17.6547 8.24596 17.7478 8.22063 17.826 8.16848C17.9042 8.11632 17.9634 8.04015 17.9946 7.95144C18.0567 7.8155 18.0864 7.66701 18.0814 7.51765C18.0888 7.30588 18.0389 7.09602 17.9368 6.91035C18.0814 6.67899 18.2549 6.3898 18.4284 6.1006C18.5441 5.95601 18.6308 5.75357 18.7465 5.58006C19.1159 6.18249 19.3249 6.86942 19.3538 7.57549C19.3584 8.20305 19.1319 8.81036 18.7176 9.28173ZM14.264 9.33957C13.8304 8.79801 13.5947 8.12464 13.596 7.43089V7.05494C13.6827 6.36088 14.1454 5.72465 14.666 5.08843L14.7527 4.94383C15.2155 4.36544 15.7071 3.75814 15.7071 3.03516C15.7132 2.95687 15.7034 2.87816 15.6782 2.8038C15.6546 2.55389 15.645 2.30287 15.6492 2.0519C15.6241 1.39056 15.841 0.742761 16.2594 0.22998V0.374577C16.2594 1.41567 16.7511 2.37001 17.1849 3.12191C16.9824 3.41111 16.7511 3.72922 16.4908 4.04733C16.3173 4.27869 16.1148 4.53896 15.9124 4.79923C15.3051 5.66681 14.6978 6.59223 14.6978 7.74901C14.6991 8.2172 14.7976 8.68003 14.987 9.10822C14.7408 9.16792 14.4992 9.24524 14.264 9.33957ZM24.2412 10.5831C24.2355 10.5125 24.2158 10.4436 24.1833 10.3807C24.053 10.1617 23.8868 9.96623 23.6917 9.80228L26.468 2.63029H26.6704C26.8982 2.63453 27.1224 2.68849 27.3272 2.78839C27.532 2.8883 27.7125 3.03173 27.8561 3.20867C28.116 3.50694 28.2687 3.8836 28.2899 4.27869L24.2412 10.5831ZM4.83631 4.27869C4.85745 3.8836 5.01015 3.50694 5.2701 3.20867C5.41733 3.02861 5.6026 2.88338 5.81259 2.78338C6.02259 2.68338 6.25212 2.6311 6.48471 2.63029H6.65533L9.43159 9.80228C9.23847 9.96046 9.08082 10.1575 8.96888 10.3807C8.93996 10.4385 8.91104 10.5253 8.88212 10.5831L4.83631 4.27869ZM24.8196 11.9712C24.6721 11.8566 24.5057 11.7685 24.3279 11.711L28.7815 4.79923C29.0203 4.82299 29.2491 4.90713 29.4465 5.04373C29.6438 5.18033 29.8031 5.3649 29.9094 5.58006C30.0339 5.78089 30.1161 6.00504 30.1509 6.23877C30.1857 6.47249 30.1724 6.71086 30.1118 6.93927L24.8196 11.9712ZM3.01439 6.93927C2.9538 6.71086 2.94051 6.47249 2.97532 6.23877C3.01013 6.00504 3.09231 5.78089 3.21683 5.58006C3.32521 5.36708 3.4847 5.18429 3.68101 5.04803C3.87733 4.91177 4.10435 4.82629 4.34179 4.79923L8.79536 11.711C8.61761 11.7685 8.45125 11.8566 8.30374 11.9712L3.01439 6.93927ZM1.5395 9.80228C1.43929 9.57442 1.38755 9.32822 1.38755 9.0793C1.38755 8.83037 1.43929 8.58417 1.5395 8.35631C1.64077 8.13778 1.78886 7.9442 1.97327 7.78927C2.15768 7.63435 2.37391 7.52187 2.60663 7.45981L7.84103 12.4918C7.84103 12.5207 7.81211 12.5207 7.81211 12.5496C7.69692 12.7835 7.63752 13.0408 7.63859 13.3015V13.3304L1.5395 9.80228ZM25.5136 13.3015C25.5186 13.0368 25.4484 12.7761 25.3112 12.5496C25.3112 12.5207 25.2823 12.5207 25.2823 12.4918L30.5456 7.45981C30.7729 7.52661 30.9833 7.64113 31.1629 7.79573C31.3424 7.95032 31.4869 8.14144 31.5867 8.35631C31.6869 8.58417 31.7386 8.83037 31.7386 9.0793C31.7386 9.32822 31.6869 9.57442 31.5867 9.80228L25.5136 13.3304V13.3015ZM25.5425 14.8053C25.4828 14.6075 25.3732 14.4282 25.2244 14.2848L31.9626 10.3807C32.3376 10.5846 32.6178 10.9271 32.7435 11.335C32.8198 11.5758 32.8413 11.8307 32.8063 12.0809C32.7712 12.3312 32.6806 12.5704 32.541 12.781L25.5425 14.8053ZM0.582275 12.781C0.447116 12.5682 0.361369 12.3279 0.33134 12.0777C0.301312 11.8275 0.327767 11.5737 0.408759 11.335C0.460515 11.1282 0.557355 10.9354 0.692343 10.7704C0.827332 10.6054 0.99713 10.4723 1.18958 10.3807L7.92778 14.2848C7.77977 14.4344 7.66195 14.6111 7.58075 14.8053L0.582275 12.781ZM25.4529 16.2513C25.5901 16.0127 25.6693 15.7453 25.6843 15.4705L32.596 13.475C32.7765 13.6201 32.9203 13.8057 33.0158 14.0167C33.1112 14.2277 33.1557 14.4583 33.1454 14.6896C33.147 15.1292 32.9816 15.553 32.6827 15.8753L25.4529 16.2513ZM0.44057 15.9043C0.141037 15.5725 -0.0158376 15.1362 0.00388804 14.6896C-0.00821509 14.4608 0.0324316 14.2323 0.122689 14.0217C0.212947 13.8111 0.350401 13.6241 0.524436 13.475L7.46508 15.4994C7.47411 15.7622 7.54337 16.0195 7.66751 16.2513L0.44057 15.9043ZM25.5715 17.7262C25.5803 17.4388 25.4994 17.1558 25.3401 16.9164L32.7145 16.5694C32.9604 16.9014 33.0645 17.3175 33.0037 17.7262C32.9768 17.9725 32.8986 18.2104 32.774 18.4246C32.6495 18.6388 32.4815 18.8245 32.2808 18.9697L25.5715 17.7262ZM0.871468 18.9697C0.666789 18.8259 0.494252 18.641 0.364812 18.427C0.235371 18.2129 0.151855 17.9742 0.119565 17.7262C0.0683235 17.3137 0.18272 16.8977 0.437678 16.5694L7.78319 16.9164C7.63677 17.1616 7.55701 17.4407 7.55183 17.7262L0.871468 18.9697ZM1.76797 21.6014C1.56713 21.5022 1.39052 21.3602 1.2506 21.1853C1.11068 21.0104 1.01087 20.8069 0.958226 20.5892C0.875908 20.2678 0.917188 19.9272 1.0739 19.6349L7.66751 18.3913C7.77829 18.6159 7.92479 18.821 8.1013 18.9986L1.76797 21.6014ZM25.0191 18.9986C25.2133 18.8366 25.3626 18.6275 25.4529 18.3913L32.0754 19.6349C32.2222 19.9311 32.2531 20.2714 32.1622 20.5892C32.1095 20.8069 32.0097 21.0104 31.8698 21.1853C31.7299 21.3602 31.5533 21.5022 31.3524 21.6014L25.0191 18.9986ZM24.9324 20.6759C25.0379 20.4707 25.0878 20.2414 25.0769 20.0108V19.7505L30.9476 22.1508C31.0477 22.4967 31.0168 22.8674 30.8608 23.1919C30.7746 23.3727 30.6536 23.5347 30.5047 23.6687C30.3559 23.8027 30.1821 23.906 29.9932 23.9727L24.9324 20.6759ZM3.13007 23.9727C2.94525 23.9051 2.77584 23.8012 2.63181 23.6671C2.48778 23.533 2.37204 23.3714 2.29141 23.1919C2.20712 23.0333 2.15596 22.8593 2.14105 22.6803C2.12613 22.5013 2.14777 22.3212 2.20465 22.1508L8.07527 19.7505C8.05142 19.8351 8.04165 19.923 8.04635 20.0108C8.04963 20.24 8.09879 20.4661 8.19095 20.6759L3.13007 23.9727ZM4.77847 25.9682C4.57094 25.9277 4.37386 25.8452 4.19931 25.7259C4.02477 25.6066 3.87643 25.4528 3.7634 25.2741C3.5968 25.0698 3.50497 24.8147 3.50313 24.5511L8.59293 21.2254C8.78841 21.4142 9.02648 21.553 9.28699 21.6303V21.6592L4.77847 25.9682ZM23.8363 21.6592V21.6303C24.0968 21.553 24.3349 21.4142 24.5304 21.2254L29.6202 24.5511C29.6102 24.8087 29.5303 25.0587 29.3888 25.2741C29.143 25.6311 28.7691 25.8796 28.3448 25.9682L23.8363 21.6592ZM6.71606 27.472C6.31438 27.4557 5.93307 27.2908 5.64605 27.0093C5.48476 26.8424 5.35712 26.646 5.2701 26.4309L9.3188 22.5557C9.38986 22.7483 9.49793 22.9252 9.63692 23.0763C9.63692 23.1052 9.66584 23.1341 9.69475 23.163L6.71606 27.472ZM23.4285 23.163L23.5153 23.0763C23.6452 22.9236 23.7435 22.7466 23.8045 22.5557L27.8532 26.4309C27.7662 26.646 27.6385 26.8424 27.4773 27.0093C27.3384 27.1534 27.1723 27.2684 26.9886 27.3479C26.8049 27.4273 26.6073 27.4695 26.4072 27.472L23.4285 23.163ZM24.4118 28.7155H24.1804L21.9826 23.7414H21.9537C21.9613 23.7414 21.9687 23.7383 21.9741 23.7329C21.9795 23.7275 21.9826 23.7201 21.9826 23.7125C22.0404 23.7125 22.0693 23.7414 22.1272 23.7414C22.3879 23.7425 22.6452 23.6831 22.8791 23.5679L25.8578 27.8479C25.7341 28.0635 25.5667 28.2507 25.3661 28.3974C25.0891 28.6006 24.7554 28.7119 24.4118 28.7155ZM8.70861 28.7155C8.36582 28.7074 8.03335 28.5966 7.75427 28.3974C7.55458 28.2579 7.39503 28.0684 7.29156 27.8479L10.2413 23.5679C10.4763 23.68 10.7329 23.7392 10.9932 23.7414C11.0511 23.7414 11.1089 23.7125 11.1667 23.7125V23.7414L8.93996 28.7155H8.70861ZM10.6751 29.6409C10.476 29.6474 10.2781 29.6078 10.0967 29.5253C9.85387 29.4469 9.64811 29.2823 9.51835 29.0626L11.5427 24.5801L11.6584 24.6957C11.8037 24.828 11.9698 24.9355 12.15 25.0138L11.1667 29.5253C11.0163 29.6074 10.8464 29.6474 10.6751 29.6409ZM22.4742 29.6409C22.2934 29.6508 22.1133 29.6108 21.9537 29.5253L20.9704 25.0138C21.1543 24.9424 21.3216 24.8342 21.462 24.6957C21.5199 24.6668 21.5488 24.609 21.5777 24.5801L23.6021 29.0626C23.4768 29.2747 23.283 29.4379 23.0526 29.5253C22.8696 29.6024 22.6728 29.6418 22.4742 29.6409ZM12.8152 29.9591C12.7862 29.9591 12.7284 29.9301 12.6995 29.9301C12.5455 29.9289 12.3936 29.8947 12.2539 29.8299C12.1142 29.765 11.99 29.671 11.8897 29.5542L12.8152 25.1874H12.873C13.1635 25.1786 13.4491 25.1097 13.7117 24.9849L13.5092 29.7855C13.296 29.9006 13.0574 29.9603 12.8152 29.9591ZM20.3053 29.9591C20.0723 29.9598 19.8431 29.9 19.6401 29.7855L19.4088 24.9849C19.6713 25.1097 19.9569 25.1786 20.2474 25.1874H20.3053L21.2596 29.5542C21.1515 29.669 21.0217 29.7613 20.8778 29.8258C20.7339 29.8904 20.5786 29.9258 20.4209 29.9301C20.392 29.9301 20.3631 29.9591 20.3053 29.9591ZM16.1698 38.23L16.1409 36.6683C16.142 36.6087 16.1263 36.55 16.0956 36.4989C16.0649 36.4477 16.0205 36.4062 15.9674 36.3791C15.7758 36.2887 15.6141 36.1453 15.5014 35.966C15.3887 35.7866 15.3296 35.5788 15.3311 35.367C15.3371 35.1604 15.3961 34.9587 15.5025 34.7815C15.6088 34.6042 15.759 34.4573 15.9384 34.3548C15.9886 34.3265 16.0292 34.2838 16.0549 34.2323C16.0807 34.1808 16.0905 34.1227 16.083 34.0656C16.0541 31.405 15.9963 29.2939 15.8806 27.6455C15.8228 26.7201 15.7649 25.9971 15.6782 25.4766C15.5625 24.8403 15.4757 24.4644 15.2733 24.2041C15.1782 24.0864 15.0597 23.9896 14.9253 23.9199C14.7909 23.8502 14.6435 23.8091 14.4925 23.7992C14.1855 23.8205 13.8971 23.9544 13.6827 24.1752C13.5761 24.28 13.4494 24.3622 13.3103 24.4168C13.1712 24.4715 13.0224 24.4975 12.873 24.4933C12.739 24.4983 12.6054 24.4751 12.4809 24.4253C12.3563 24.3755 12.2436 24.3001 12.15 24.2041C12.0477 24.1139 11.9662 24.0025 11.9113 23.8777C11.8564 23.7528 11.8293 23.6175 11.8319 23.4811V23.3365C11.845 23.279 11.8378 23.2188 11.8114 23.166C11.785 23.1133 11.7412 23.0713 11.6873 23.0473C11.6618 23.0191 11.6305 22.9967 11.5956 22.9818C11.5606 22.9668 11.5229 22.9596 11.4849 22.9606C11.4559 22.9606 11.3981 22.9895 11.3692 22.9895C11.2497 23.0363 11.1213 23.0561 10.9932 23.0473C10.835 23.0465 10.6786 23.0126 10.5342 22.9479C10.3898 22.8832 10.2605 22.789 10.1546 22.6714C10.011 22.4897 9.92986 22.2666 9.92322 22.0352C9.9304 21.8528 9.97991 21.6746 10.0678 21.5146C10.0963 21.4664 10.1113 21.4115 10.1113 21.3556C10.1113 21.2996 10.0963 21.2447 10.0678 21.1965C10.0407 21.1434 9.99924 21.0989 9.9481 21.0683C9.89697 21.0376 9.83824 21.0219 9.77862 21.023C9.58933 21.0225 9.40363 20.9713 9.24086 20.8746C9.0781 20.778 8.94423 20.6395 8.8532 20.4735C8.7745 20.3322 8.73459 20.1725 8.73753 20.0108C8.73524 19.7412 8.83912 19.4815 9.02672 19.2878C9.06808 19.2472 9.09792 19.1964 9.11316 19.1405C9.12841 19.0846 9.12852 19.0257 9.11348 18.9697C9.1049 18.916 9.08135 18.8658 9.04555 18.8249C9.00974 18.784 8.96312 18.754 8.91104 18.7384C8.71175 18.6639 8.54061 18.5292 8.4214 18.353C8.3022 18.1768 8.24085 17.9678 8.2459 17.7551C8.24708 17.5838 8.2898 17.4154 8.37039 17.2643C8.45099 17.1132 8.56705 16.9839 8.70861 16.8875C8.76173 16.8604 8.80616 16.8189 8.83684 16.7678C8.86752 16.7167 8.88321 16.6579 8.88212 16.5983C8.87707 16.5401 8.85882 16.4838 8.82875 16.4337C8.79869 16.3836 8.7576 16.341 8.70861 16.3091C8.5389 16.2276 8.39506 16.1007 8.29298 15.9424C8.19091 15.7842 8.13457 15.6009 8.13022 15.4126C8.13159 15.2454 8.17462 15.0811 8.2554 14.9347C8.33619 14.7883 8.4522 14.6643 8.59293 14.574C8.63735 14.5467 8.67399 14.5084 8.69932 14.4628C8.72464 14.4172 8.7378 14.3658 8.73753 14.3137C8.7354 14.2202 8.70517 14.1295 8.65077 14.0534C8.54126 13.9613 8.45339 13.8461 8.39342 13.7162C8.33344 13.5862 8.30282 13.4446 8.30374 13.3015C8.31494 13.151 8.35417 13.0039 8.41941 12.8677C8.51365 12.6897 8.65549 12.5414 8.82911 12.4392C9.00272 12.3371 9.20129 12.2852 9.40267 12.2893C9.46229 12.2904 9.52102 12.2747 9.57215 12.2441C9.62329 12.2134 9.66477 12.1689 9.69186 12.1158C9.72276 12.0567 9.73643 11.9902 9.73132 11.9237C9.7262 11.8572 9.70251 11.7935 9.66294 11.7399C9.53622 11.5623 9.4657 11.3507 9.46051 11.1326C9.45772 10.98 9.4978 10.8297 9.57619 10.6988C9.65381 10.5437 9.76816 10.4099 9.90929 10.3091C10.0504 10.2083 10.214 10.1435 10.3859 10.1204C10.4304 10.12 10.4737 10.1059 10.5099 10.08C10.5462 10.0541 10.5735 10.0178 10.5884 9.97579C10.6187 9.94649 10.6401 9.90928 10.6504 9.86839C10.6606 9.82749 10.6591 9.78456 10.6462 9.74444C10.6464 9.7039 10.6381 9.66377 10.6218 9.62666C10.6055 9.58954 10.5815 9.55627 10.5515 9.529C10.5215 9.50173 10.4862 9.48108 10.4477 9.46837C10.4092 9.45566 10.3684 9.45119 10.3281 9.45525H10.2703C10.2124 9.48417 10.1257 9.48417 10.0678 9.51309L7.26264 2.28325C7.35917 1.86933 7.5911 1.49947 7.92165 1.2323C8.25221 0.96513 8.66249 0.815936 9.08745 0.808367C9.36001 0.813571 9.62751 0.882923 9.86827 1.0108L9.92611 1.44459C10.3888 4.24977 11.4299 10.7566 11.6613 11.7688C11.6908 11.9021 11.7101 12.0374 11.7191 12.1737C11.7191 12.4339 11.6034 12.5785 11.401 12.9256L11.3432 13.0123C10.9328 13.6706 10.6118 14.3805 10.3888 15.1234C10.2115 15.7539 10.1239 16.4061 10.1285 17.061C10.1285 19.3457 11.0829 21.5146 12.471 22.4689C12.9045 22.8012 13.4292 22.9929 13.9748 23.0184C14.224 23.0179 14.4689 22.9539 14.6865 22.8325C14.9041 22.7111 15.0871 22.5362 15.2183 22.3243C15.4812 21.826 15.6107 21.2681 15.5943 20.7049V20.5024C15.5654 20.0686 15.5654 19.4613 15.5654 18.7673C15.5654 18.0732 15.5365 17.2635 15.5365 16.4826C15.4786 15.2102 15.4208 13.8799 15.1894 13.1858L15.1605 13.128C15.1648 13.0872 15.1546 13.0463 15.1316 13.0123L15.1027 12.9834C14.8424 12.4918 14.3508 12.1447 13.5699 11.8845V11.5085C13.5699 11.2193 13.5989 10.9012 13.6278 10.5831C14.1773 9.97579 15.334 9.57092 16.5486 9.57092H16.5776C17.2826 9.56245 17.9818 9.70031 18.6308 9.97579C18.6446 9.99343 18.6621 10.0078 18.6821 10.0178C18.7021 10.0278 18.7241 10.0332 18.7465 10.0336C19.0334 10.1612 19.2897 10.3485 19.4984 10.5831C19.5456 10.8892 19.5649 11.1989 19.5562 11.5085V11.8845C18.7754 12.1447 18.2838 12.4918 18.0235 12.9834V13.0123H17.9946C17.9946 13.0412 17.9657 13.0702 17.9657 13.128C17.9571 13.1351 17.9502 13.144 17.9452 13.1539C17.9402 13.1639 17.9374 13.1747 17.9368 13.1858C17.7343 13.7931 17.6476 14.8921 17.6187 16.4826C17.5897 17.2635 17.5897 18.0732 17.5897 18.7673C17.5897 19.4613 17.5608 20.0686 17.5608 20.5024C17.5608 20.5892 17.5319 20.647 17.5319 20.7049C17.509 21.2719 17.6485 21.8338 17.9339 22.3243C18.0592 22.535 18.2369 22.7097 18.4498 22.8313C18.6626 22.953 18.9033 23.0174 19.1485 23.0184C19.703 22.9936 20.2372 22.8021 20.6812 22.4689C22.0693 21.5146 22.9948 19.3457 22.9948 17.061C22.9994 16.4061 22.9118 15.7539 22.7345 15.1234C22.5241 14.3758 22.2023 13.6642 21.7801 13.0123L21.7223 12.8966C21.5499 12.6935 21.4484 12.4397 21.4331 12.1737C21.4302 12.0381 21.4399 11.9026 21.462 11.7688C21.6934 10.7277 22.8791 3.46895 23.255 1.06864L23.2839 1.0108C23.5129 0.879477 23.7719 0.809731 24.0359 0.808367C24.3623 0.809272 24.6822 0.899264 24.9613 1.06864C25.1868 1.19786 25.3829 1.37258 25.5372 1.58168C25.6916 1.79078 25.8007 2.0297 25.8578 2.28325L23.0815 9.51309C22.9948 9.48417 22.9369 9.48417 22.8502 9.45525H22.8212C22.7382 9.45349 22.6574 9.48179 22.5936 9.53493C22.5299 9.58808 22.4874 9.66249 22.4742 9.74444C22.4623 9.78928 22.4613 9.83634 22.4713 9.88164C22.4814 9.92694 22.5022 9.96915 22.532 10.0047C22.5919 10.0709 22.6745 10.1122 22.7634 10.1204C22.934 10.1474 23.0959 10.2137 23.2365 10.3141C23.377 10.4145 23.4923 10.5462 23.5731 10.6988C23.6297 10.8364 23.6592 10.9837 23.6599 11.1326C23.6684 11.3529 23.5964 11.5687 23.4575 11.7399L23.4285 11.7977C23.4089 11.8534 23.3991 11.9121 23.3996 11.9712V12.058C23.4292 12.1145 23.4701 12.1642 23.5199 12.2041C23.5697 12.2439 23.6272 12.2729 23.6888 12.2893H23.7756C23.9677 12.2932 24.1551 12.3491 24.3181 12.4509C24.481 12.5527 24.6133 12.6968 24.701 12.8677C24.7794 12.9987 24.8195 13.1489 24.8167 13.3015C24.8166 13.4417 24.7883 13.5805 24.7337 13.7097C24.6791 13.8388 24.5991 13.9557 24.4986 14.0534C24.4602 14.0847 24.4297 14.1245 24.4096 14.1697C24.3896 14.215 24.3804 14.2643 24.3829 14.3137C24.3826 14.3658 24.3958 14.4172 24.4211 14.4628C24.4464 14.5084 24.4831 14.5467 24.5275 14.574C24.6682 14.6643 24.7842 14.7883 24.865 14.9347C24.9458 15.0811 24.9888 15.2454 24.9902 15.4126C24.9918 15.5985 24.9412 15.7812 24.844 15.9397C24.7469 16.0982 24.6071 16.2262 24.4407 16.3091C24.3876 16.3362 24.3432 16.3777 24.3125 16.4288C24.2818 16.48 24.2661 16.5387 24.2672 16.5983C24.2541 16.6558 24.2613 16.7161 24.2877 16.7688C24.3141 16.8216 24.3579 16.8635 24.4118 16.8875C24.557 16.9824 24.6774 17.1107 24.7629 17.2616C24.8485 17.4126 24.8966 17.5818 24.9034 17.7551C24.9021 17.9703 24.8349 18.1799 24.7108 18.3557C24.5867 18.5315 24.4117 18.665 24.2094 18.7384C24.1573 18.754 24.1107 18.784 24.0749 18.8249C24.0391 18.8658 24.0155 18.916 24.0069 18.9697C23.9919 19.0257 23.992 19.0846 24.0072 19.1405C24.0225 19.1964 24.0523 19.2472 24.0937 19.2878C24.196 19.378 24.2774 19.4894 24.3324 19.6143C24.3873 19.7391 24.4144 19.8744 24.4118 20.0108C24.4008 20.1706 24.3616 20.3273 24.2961 20.4735C24.1948 20.6304 24.0585 20.7616 23.8979 20.8569C23.7374 20.9522 23.5569 21.0091 23.3707 21.023C23.3111 21.0219 23.2524 21.0376 23.2012 21.0683C23.1501 21.0989 23.1086 21.1434 23.0815 21.1965C23.053 21.2447 23.038 21.2996 23.038 21.3556C23.038 21.4115 23.053 21.4664 23.0815 21.5146C23.1639 21.6754 23.2037 21.8546 23.1972 22.0352C23.1905 22.2666 23.1094 22.4897 22.9658 22.6714C22.8618 22.7913 22.7329 22.8871 22.5881 22.952C22.4432 23.017 22.2859 23.0495 22.1272 23.0473C22.0001 23.0422 21.874 23.0228 21.7512 22.9895C21.7223 22.9895 21.6645 22.9606 21.6355 22.9606C21.5975 22.9596 21.5598 22.9668 21.5248 22.9818C21.4899 22.9967 21.4586 23.0191 21.4331 23.0473C21.3879 23.0807 21.3512 23.1243 21.3261 23.1745C21.3009 23.2248 21.2881 23.2803 21.2885 23.3365C21.2885 23.3944 21.3174 23.4233 21.3174 23.4811C21.32 23.6175 21.2929 23.7528 21.238 23.8777C21.1831 24.0025 21.1016 24.1139 20.9993 24.2041C20.9001 24.3007 20.7823 24.3761 20.653 24.4258C20.5238 24.4755 20.3858 24.4985 20.2474 24.4933C19.9592 24.5037 19.6785 24.3997 19.4666 24.2041C19.2554 23.9744 18.9673 23.8304 18.6569 23.7992C18.5009 23.8055 18.3481 23.8449 18.2085 23.9147C18.0689 23.9845 17.9457 24.0831 17.8471 24.2041C17.6447 24.4644 17.5579 24.8403 17.4422 25.4476C17.182 27.2117 17.0952 30.6531 17.0374 34.0656C17.0363 34.1252 17.052 34.1839 17.0827 34.2351C17.1133 34.2862 17.1578 34.3277 17.2109 34.3548C17.3828 34.4632 17.5255 34.6122 17.6264 34.7887C17.7272 34.9652 17.7832 35.1638 17.7893 35.367C17.7882 35.5747 17.7313 35.7782 17.6244 35.9563C17.5176 36.1344 17.3647 36.2805 17.182 36.3791C17.1254 36.4048 17.0768 36.4452 17.0412 36.4961C17.0056 36.5469 16.9843 36.6064 16.9795 36.6683V38.23H16.1698Z" fill="#76888F"/>
<path id="Vector_2" d="M47.4316 5.26189V14.6607H44.9735V5.26189H41.7923V3.20862H50.6416V5.26189H47.4316Z" fill="#76888F"/>
<path id="Vector_3" d="M61.6917 10.4963C61.6917 13.1858 59.9276 14.892 56.92 14.892C53.9124 14.892 52.1194 13.1858 52.1194 10.4963V3.20862H54.5775V10.2649C54.5775 11.7687 55.4162 12.6363 56.92 12.6363C58.4238 12.6363 59.2335 11.7687 59.2335 10.2649V3.20862H61.6917V10.4963Z" fill="#76888F"/>
<path id="Vector_4" d="M66.6658 5.26189V8.67437H68.401C69.4999 8.67437 70.2518 8.15382 70.2518 6.99705C70.2518 5.84028 69.471 5.26189 68.3431 5.26189H66.6658ZM68.2853 3.20862C70.9459 3.20862 72.7099 4.53891 72.7099 6.99705C72.7291 7.69914 72.5273 8.38952 72.1329 8.9707C71.7386 9.55188 71.1716 9.99448 70.5121 10.236L72.9124 14.6607H70.3386L68.3142 10.6698H66.6658V14.6607H64.2655V3.20862H68.2853Z" fill="#76888F"/>
<path id="Vector_5" d="M84.3066 10.4963C84.3066 13.1858 82.5425 14.892 79.506 14.892C76.4695 14.892 74.7343 13.1858 74.7343 10.4963V3.20862H77.1635V10.2649C77.1635 11.7687 78.0022 12.6363 79.506 12.6363C81.0098 12.6363 81.8485 11.7687 81.8485 10.2649V3.20862H84.3066V10.4963Z" fill="#76888F"/>
<path id="Vector_6" d="M96.2793 14.8342L90.0038 8.81902L89.2519 8.15388V14.6607H86.8516V3.03516H86.9672L93.2138 9.0793L93.9657 9.71552V3.20867H96.366V14.8342H96.2793Z" fill="#76888F"/>
<path id="Vector_7" d="M44.022 18.6227L46.6247 23.3076L49.2564 18.6227H52.0327L47.8683 25.6212V30.0747H45.4072V25.6212L41.2429 18.6227H44.022Z" fill="#76888F"/>
<path id="Vector_8" d="M53.1316 30.0747V18.6227H55.5608V28.0215H59.9855V30.0747H53.1316Z" fill="#76888F"/>
<path id="Vector_9" d="M61.7495 18.6227H64.2048V30.0747H61.7466L61.7495 18.6227Z" fill="#76888F"/>
<path id="Vector_10" d="M72.1894 28.0504C74.2427 28.0504 75.7176 26.402 75.7176 24.3487C75.7176 22.2954 74.2427 20.647 72.1894 20.647C70.1362 20.647 68.6613 22.2954 68.6613 24.3487C68.6613 26.402 70.1072 28.0504 72.1894 28.0504ZM72.1894 18.3913C72.9776 18.3749 73.761 18.5176 74.4929 18.8108C75.2247 19.104 75.8899 19.5417 76.4487 20.0978C77.0075 20.6539 77.4484 21.317 77.7452 22.0474C78.0419 22.7777 78.1884 23.5605 78.1757 24.3487C78.1757 27.6744 75.6598 30.2772 72.1894 30.2772C68.7191 30.2772 66.1742 27.6744 66.1742 24.3487C66.1651 23.559 66.3149 22.7754 66.6147 22.0447C66.9145 21.3141 67.3582 20.6511 67.9194 20.0953C68.4806 19.5396 69.1478 19.1023 69.8813 18.8096C70.6149 18.5168 71.3998 18.3746 72.1894 18.3913Z" fill="#76888F"/>
<path id="Vector_11" d="M82.6293 20.676V24.0884H84.0174C85.0874 24.0884 85.8393 23.539 85.8393 22.3822C85.8393 21.2254 85.0585 20.676 83.9596 20.676H82.6293ZM82.6293 26.1417V30.0747H80.1711V18.6227H83.9017C86.5334 18.6227 88.2975 19.9241 88.2975 22.3822C88.2975 24.8403 86.5334 26.1417 83.9017 26.1417H82.6293Z" fill="#76888F"/>
<path id="Vector_12" d="M90.0905 18.6227H92.5457V30.0747H90.0876L90.0905 18.6227Z" fill="#76888F"/>
<path id="Vector_13" d="M94.7465 29.641V27.2696C95.6284 27.7543 96.6055 28.0406 97.6095 28.1083C97.948 28.1348 98.2885 28.1153 98.6217 28.0504C99.5182 27.9058 100.01 27.5877 100.01 27.0382C100.01 26.2574 99.3158 25.8815 97.7541 25.3031C95.7587 24.5512 94.573 23.7125 94.573 21.746C94.573 19.6927 96.2503 18.3914 98.7374 18.3914C99.7583 18.3899 100.77 18.5863 101.716 18.9698V21.2255C100.854 20.7621 99.8894 20.5234 98.9109 20.5314C97.7252 20.5314 96.9733 20.9941 96.9733 21.7171C96.9733 22.3822 97.6095 22.8449 99.1422 23.4233C101.167 24.2042 102.41 25.0428 102.41 26.9804C102.41 29.0626 100.848 30.2772 98.1301 30.2772C96.9709 30.2954 95.82 30.0789 94.7465 29.641Z" fill="#76888F"/>
<path id="Vector_14" d="M108.859 20.676V30.0747H106.427V20.676H103.217V18.6227H112.095V20.676H108.859Z" fill="#76888F"/>
<path id="Vector_15" d="M118.981 28.0504C121.063 28.0504 122.509 26.402 122.509 24.3488C122.509 22.2955 121.063 20.6471 118.981 20.6471C116.899 20.6471 115.453 22.2955 115.453 24.3488C115.453 26.402 116.928 28.0504 118.981 28.0504ZM118.981 18.3914C119.771 18.3722 120.557 18.5128 121.292 18.8047C122.026 19.0965 122.695 19.5337 123.256 20.0899C123.818 20.6462 124.262 21.3101 124.561 22.0419C124.859 22.7737 125.008 23.5583 124.996 24.3488C124.996 27.6745 122.451 30.2772 118.981 30.2772C115.511 30.2772 112.995 27.6745 112.995 24.3488C112.982 23.5605 113.128 22.7778 113.425 22.0474C113.722 21.317 114.163 20.6539 114.722 20.0978C115.28 19.5417 115.946 19.104 116.677 18.8108C117.409 18.5176 118.193 18.3749 118.981 18.3914Z" fill="#76888F"/>
</g>
</g>
</g>
<defs>
<clipPath id="clip0_1_4355">
<rect width="124.992" height="38" fill="white" transform="translate(0.00387573 0.22998)"/>
</clipPath>
</defs>
</svg>
