<svg width="38" height="39" viewBox="0 0 38 39" fill="none" xmlns="http://www.w3.org/2000/svg">
<g id="record_voice_over">
<mask id="mask0_1_4830" style="mask-type:alpha" maskUnits="userSpaceOnUse" x="0" y="0" width="38" height="39">
<rect id="Bounding box" y="0.22998" width="38" height="38" fill="#D9D9D9"/>
</mask>
<g mask="url(#mask0_1_4830)">
<path id="record_voice_over_2" d="M31.5874 25.4842L29.1333 23.03C30.2944 21.9481 31.2048 20.6682 31.8645 19.1904C32.5242 17.7126 32.8541 16.1425 32.8541 14.48C32.8541 12.8175 32.5242 11.2606 31.8645 9.80916C31.2048 8.35777 30.2944 7.09111 29.1333 6.00916L31.5874 3.47583C33.0652 4.87444 34.2395 6.52375 35.1103 8.42375C35.9812 10.3237 36.4166 12.3425 36.4166 14.48C36.4166 16.6175 35.9812 18.6362 35.1103 20.5362C34.2395 22.4362 33.0652 24.0856 31.5874 25.4842ZM26.5208 20.4175L23.9874 17.8842C24.4624 17.4356 24.8451 16.9276 25.1353 16.3602C25.4256 15.7928 25.5708 15.1661 25.5708 14.48C25.5708 13.7939 25.4256 13.1672 25.1353 12.5998C24.8451 12.0324 24.4624 11.5244 23.9874 11.0758L26.5208 8.5425C27.3652 9.30777 28.0249 10.1984 28.4999 11.2144C28.9749 12.2303 29.2124 13.3189 29.2124 14.48C29.2124 15.6411 28.9749 16.7296 28.4999 17.7456C28.0249 18.7616 27.3652 19.6522 26.5208 20.4175ZM14.2499 20.8133C12.5083 20.8133 11.0173 20.1932 9.77701 18.9529C8.53673 17.7126 7.91659 16.2217 7.91659 14.48C7.91659 12.7383 8.53673 11.2474 9.77701 10.0071C11.0173 8.7668 12.5083 8.14666 14.2499 8.14666C15.9916 8.14666 17.4826 8.7668 18.7228 10.0071C19.9631 11.2474 20.5833 12.7383 20.5833 14.48C20.5833 16.2217 19.9631 17.7126 18.7228 18.9529C17.4826 20.1932 15.9916 20.8133 14.2499 20.8133ZM1.58326 33.48V29.0467C1.58326 28.1758 1.80757 27.3578 2.25618 26.5925C2.70479 25.8272 3.32493 25.2467 4.11659 24.8508C5.46243 24.1647 6.97979 23.5842 8.66868 23.1092C10.3576 22.6342 12.218 22.3967 14.2499 22.3967C16.2819 22.3967 18.1423 22.6342 19.8312 23.1092C21.5201 23.5842 23.0374 24.1647 24.3833 24.8508C25.1749 25.2467 25.7951 25.8272 26.2437 26.5925C26.6923 27.3578 26.9166 28.1758 26.9166 29.0467V33.48H1.58326ZM4.74993 30.3133H23.7499V29.0467C23.7499 28.7564 23.6774 28.4925 23.5322 28.255C23.3871 28.0175 23.1958 27.8328 22.9583 27.7008C22.0083 27.2258 20.7878 26.7508 19.2968 26.2758C17.8058 25.8008 16.1235 25.5633 14.2499 25.5633C12.3763 25.5633 10.694 25.8008 9.20305 26.2758C7.71208 26.7508 6.49159 27.2258 5.54159 27.7008C5.30409 27.8328 5.11277 28.0175 4.96763 28.255C4.8225 28.4925 4.74993 28.7564 4.74993 29.0467V30.3133ZM14.2499 17.6467C15.1208 17.6467 15.8662 17.3366 16.4864 16.7165C17.1065 16.0963 17.4166 15.3508 17.4166 14.48C17.4166 13.6092 17.1065 12.8637 16.4864 12.2435C15.8662 11.6234 15.1208 11.3133 14.2499 11.3133C13.3791 11.3133 12.6336 11.6234 12.0135 12.2435C11.3933 12.8637 11.0833 13.6092 11.0833 14.48C11.0833 15.3508 11.3933 16.0963 12.0135 16.7165C12.6336 17.3366 13.3791 17.6467 14.2499 17.6467Z" fill="#7534FF"/>
</g>
</g>
</svg>
